<svg width="2672" height="410" viewBox="0 0 2672 410" fill="none" xmlns="http://www.w3.org/2000/svg">
<path d="M135.85 0.249991C151.25 0.249991 165.367 2.63333 178.2 7.4C191.033 12.1666 202.033 18.2166 211.2 25.55C220.733 32.8833 228.067 40.4 233.2 48.1C238.7 55.4333 241.45 61.6667 241.45 66.8L227.15 73.95V33.8C227.15 24.2666 230.267 16.3833 236.5 10.15C242.733 3.54999 250.617 0.249991 260.15 0.249991C269.683 0.249991 277.567 3.36666 283.8 9.6C290.033 15.8333 293.15 23.9 293.15 33.8V278.55C293.15 310.45 286.183 335.933 272.25 355C258.683 374.433 240.717 388.367 218.35 396.8C195.983 405.6 171.967 410 146.3 410C138.967 410 129.433 409.083 117.7 407.25C105.967 405.417 94.7833 403.217 84.15 400.65C73.5167 398.083 65.45 395.7 59.95 393.5C48.95 388.733 41.25 382.683 36.85 375.35C32.8167 368.383 32.0833 360.867 34.65 352.8C37.95 342.167 43.2667 334.833 50.6 330.8C57.9333 327.133 65.6333 326.767 73.7 329.7C77.3667 330.8 83.4167 333 91.85 336.3C100.283 339.6 109.45 342.533 119.35 345.1C129.617 348.033 138.6 349.5 146.3 349.5C173.8 349.5 194.15 344 207.35 333C220.55 322 227.15 306.783 227.15 287.35V239.5L233.75 244.45C233.75 249.217 231.183 255.083 226.05 262.05C221.283 268.65 214.5 275.25 205.7 281.85C197.267 288.45 187.183 294.133 175.45 298.9C163.717 303.3 151.25 305.5 138.05 305.5C112.017 305.5 88.55 299.083 67.65 286.25C46.75 273.05 30.25 255.083 18.15 232.35C6.05 209.25 1.55717e-06 182.85 1.55717e-06 153.15C1.55717e-06 123.083 6.05 96.6833 18.15 73.95C30.25 50.85 46.5667 32.8833 67.1 20.05C87.6333 6.84999 110.55 0.249991 135.85 0.249991ZM146.3 60.75C129.8 60.75 115.317 64.7833 102.85 72.85C90.3833 80.9167 80.6667 91.9167 73.7 105.85C66.7333 119.783 63.25 135.55 63.25 153.15C63.25 170.383 66.7333 185.967 73.7 199.9C80.6667 213.833 90.3833 224.833 102.85 232.9C115.317 240.967 129.8 245 146.3 245C163.167 245 177.833 240.967 190.3 232.9C202.767 224.833 212.483 213.833 219.45 199.9C226.417 185.967 229.9 170.383 229.9 153.15C229.9 135.55 226.417 119.783 219.45 105.85C212.483 91.9167 202.767 80.9167 190.3 72.85C177.833 64.7833 163.167 60.75 146.3 60.75ZM602.697 0.249991C612.23 0.249991 620.114 3.36666 626.347 9.6C632.58 15.8333 635.697 23.9 635.697 33.8V266.45C635.697 275.983 632.58 284.05 626.347 290.65C620.114 296.883 612.23 300 602.697 300C593.164 300 585.28 296.883 579.047 290.65C572.814 284.05 569.697 275.983 569.697 266.45V239.5L581.797 244.45C581.797 249.217 579.23 255.083 574.097 262.05C568.964 268.65 561.997 275.25 553.197 281.85C544.397 288.45 533.947 294.133 521.847 298.9C510.114 303.3 497.28 305.5 483.347 305.5C458.047 305.5 435.13 299.083 414.597 286.25C394.064 273.05 377.747 255.083 365.647 232.35C353.914 209.25 348.047 182.85 348.047 153.15C348.047 123.083 353.914 96.6833 365.647 73.95C377.747 50.85 393.88 32.8833 414.047 20.05C434.214 6.84999 456.58 0.249991 481.147 0.249991C496.914 0.249991 511.397 2.63333 524.597 7.4C537.797 12.1666 549.164 18.2166 558.697 25.55C568.597 32.8833 576.114 40.4 581.247 48.1C586.747 55.4333 589.497 61.6667 589.497 66.8L569.697 73.95V33.8C569.697 24.2666 572.814 16.3833 579.047 10.15C585.28 3.54999 593.164 0.249991 602.697 0.249991ZM491.597 245C507.73 245 521.847 240.967 533.947 232.9C546.047 224.833 555.397 213.833 561.997 199.9C568.964 185.967 572.447 170.383 572.447 153.15C572.447 135.55 568.964 119.783 561.997 105.85C555.397 91.9167 546.047 80.9167 533.947 72.85C521.847 64.7833 507.73 60.75 491.597 60.75C475.83 60.75 461.897 64.7833 449.797 72.85C437.697 80.9167 428.164 91.9167 421.197 105.85C414.597 119.783 411.297 135.55 411.297 153.15C411.297 170.383 414.597 185.967 421.197 199.9C428.164 213.833 437.697 224.833 449.797 232.9C461.897 240.967 475.83 245 491.597 245ZM861.708 0.249991C891.042 0.249991 912.675 7.39999 926.608 21.7C940.542 35.6333 949.708 53.7833 954.108 76.15L944.758 71.2L949.158 62.4C953.558 53.9667 960.342 44.9833 969.508 35.45C978.675 25.55 989.675 17.3 1002.51 10.7C1015.71 3.73332 1030.37 0.249991 1046.51 0.249991C1072.91 0.249991 1092.89 5.93333 1106.46 17.3C1120.39 28.6667 1129.92 43.8833 1135.06 62.95C1140.19 81.65 1142.76 102.55 1142.76 125.65V266.45C1142.76 275.983 1139.64 284.05 1133.41 290.65C1127.17 296.883 1119.29 300 1109.76 300C1100.22 300 1092.34 296.883 1086.11 290.65C1079.87 284.05 1076.76 275.983 1076.76 266.45V125.65C1076.76 113.55 1075.29 102.733 1072.36 93.2C1069.42 83.3 1064.11 75.4167 1056.41 69.55C1048.71 63.6833 1037.71 60.75 1023.41 60.75C1009.47 60.75 997.558 63.6833 987.658 69.55C977.758 75.4167 970.242 83.3 965.108 93.2C960.342 102.733 957.958 113.55 957.958 125.65V266.45C957.958 275.983 954.842 284.05 948.608 290.65C942.375 296.883 934.492 300 924.958 300C915.425 300 907.542 296.883 901.308 290.65C895.075 284.05 891.958 275.983 891.958 266.45V125.65C891.958 113.55 890.492 102.733 887.558 93.2C884.625 83.3 879.308 75.4167 871.608 69.55C863.908 63.6833 852.908 60.75 838.608 60.75C824.675 60.75 812.758 63.6833 802.858 69.55C792.958 75.4167 785.442 83.3 780.308 93.2C775.542 102.733 773.158 113.55 773.158 125.65V266.45C773.158 275.983 770.042 284.05 763.808 290.65C757.575 296.883 749.692 300 740.158 300C730.625 300 722.742 296.883 716.508 290.65C710.275 284.05 707.158 275.983 707.158 266.45V39.3C707.158 29.7667 710.275 21.8833 716.508 15.65C722.742 9.04999 730.625 5.74999 740.158 5.74999C749.692 5.74999 757.575 9.04999 763.808 15.65C770.042 21.8833 773.158 29.7667 773.158 39.3V62.95L764.908 61.3C768.208 55.0667 772.792 48.4666 778.658 41.5C784.525 34.1667 791.675 27.3833 800.108 21.15C808.542 14.9166 817.892 9.96664 828.158 6.29998C838.425 2.26665 849.608 0.249991 861.708 0.249991ZM1352.79 305.5C1321.62 305.5 1294.49 299.083 1271.39 286.25C1248.66 273.05 1231.06 255.267 1218.59 232.9C1206.49 210.533 1200.44 185.233 1200.44 157C1200.44 124 1207.04 95.95 1220.24 72.85C1233.81 49.3833 1251.41 31.4166 1273.04 18.95C1294.67 6.48332 1317.59 0.249991 1341.79 0.249991C1360.49 0.249991 1378.09 4.09998 1394.59 11.8C1411.46 19.5 1426.31 30.1333 1439.14 43.7C1451.97 56.9 1462.06 72.3 1469.39 89.9C1477.09 107.5 1480.94 126.2 1480.94 146C1480.57 154.8 1477.09 161.95 1470.49 167.45C1463.89 172.95 1456.19 175.7 1447.39 175.7H1237.29L1220.79 120.7H1422.64L1410.54 131.7V116.85C1409.81 106.217 1405.96 96.6833 1398.99 88.25C1392.39 79.8167 1383.96 73.2167 1373.69 68.45C1363.79 63.3166 1353.16 60.75 1341.79 60.75C1330.79 60.75 1320.52 62.2167 1310.99 65.15C1301.46 68.0833 1293.21 73.0333 1286.24 80C1279.27 86.9667 1273.77 96.3167 1269.74 108.05C1265.71 119.783 1263.69 134.633 1263.69 152.6C1263.69 172.4 1267.72 189.267 1275.79 203.2C1284.22 216.767 1294.86 227.217 1307.69 234.55C1320.89 241.517 1334.82 245 1349.49 245C1363.06 245 1373.87 243.9 1381.94 241.7C1390.01 239.5 1396.42 236.933 1401.19 234C1406.32 230.7 1410.91 227.95 1414.94 225.75C1421.54 222.45 1427.77 220.8 1433.64 220.8C1441.71 220.8 1448.31 223.55 1453.44 229.05C1458.94 234.55 1461.69 240.967 1461.69 248.3C1461.69 258.2 1456.56 267.183 1446.29 275.25C1436.76 283.317 1423.37 290.467 1406.14 296.7C1388.91 302.567 1371.12 305.5 1352.79 305.5ZM1933.65 0.249991C1943.19 0.249991 1951.07 3.36666 1957.3 9.6C1963.54 15.8333 1966.65 23.9 1966.65 33.8V266.45C1966.65 275.983 1963.54 284.05 1957.3 290.65C1951.07 296.883 1943.19 300 1933.65 300C1924.12 300 1916.24 296.883 1910 290.65C1903.77 284.05 1900.65 275.983 1900.65 266.45V239.5L1912.75 244.45C1912.75 249.217 1910.19 255.083 1905.05 262.05C1899.92 268.65 1892.95 275.25 1884.15 281.85C1875.35 288.45 1864.9 294.133 1852.8 298.9C1841.07 303.3 1828.24 305.5 1814.3 305.5C1789 305.5 1766.09 299.083 1745.55 286.25C1725.02 273.05 1708.7 255.083 1696.6 232.35C1684.87 209.25 1679 182.85 1679 153.15C1679 123.083 1684.87 96.6833 1696.6 73.95C1708.7 50.85 1724.84 32.8833 1745 20.05C1765.17 6.84999 1787.54 0.249991 1812.1 0.249991C1827.87 0.249991 1842.35 2.63333 1855.55 7.4C1868.75 12.1666 1880.12 18.2166 1889.65 25.55C1899.55 32.8833 1907.07 40.4 1912.2 48.1C1917.7 55.4333 1920.45 61.6667 1920.45 66.8L1900.65 73.95V33.8C1900.65 24.2666 1903.77 16.3833 1910 10.15C1916.24 3.54999 1924.12 0.249991 1933.65 0.249991ZM1822.55 245C1838.69 245 1852.8 240.967 1864.9 232.9C1877 224.833 1886.35 213.833 1892.95 199.9C1899.92 185.967 1903.4 170.383 1903.4 153.15C1903.4 135.55 1899.92 119.783 1892.95 105.85C1886.35 91.9167 1877 80.9167 1864.9 72.85C1852.8 64.7833 1838.69 60.75 1822.55 60.75C1806.79 60.75 1792.85 64.7833 1780.75 72.85C1768.65 80.9167 1759.12 91.9167 1752.15 105.85C1745.55 119.783 1742.25 135.55 1742.25 153.15C1742.25 170.383 1745.55 185.967 1752.15 199.9C1759.12 213.833 1768.65 224.833 1780.75 232.9C1792.85 240.967 1806.79 245 1822.55 245ZM2190.47 0.249991C2216.13 0.249991 2239.05 6.84999 2259.22 20.05C2279.75 32.8833 2295.88 50.6666 2307.62 73.4C2319.72 96.1333 2325.77 122.533 2325.77 152.6C2325.77 182.667 2319.72 209.25 2307.62 232.35C2295.88 255.083 2279.93 273.05 2259.77 286.25C2239.97 299.083 2217.6 305.5 2192.67 305.5C2178 305.5 2164.25 303.117 2151.42 298.35C2138.58 293.583 2127.22 287.533 2117.32 280.2C2107.78 272.867 2100.27 265.533 2094.77 258.2C2089.63 250.5 2087.07 244.083 2087.07 238.95L2104.12 231.8V376.45C2104.12 385.983 2101 393.867 2094.77 400.1C2088.53 406.7 2080.65 410 2071.12 410C2061.58 410 2053.7 406.883 2047.47 400.65C2041.23 394.417 2038.12 386.35 2038.12 376.45V39.3C2038.12 29.7667 2041.23 21.8833 2047.47 15.65C2053.7 9.04999 2061.58 5.74999 2071.12 5.74999C2080.65 5.74999 2088.53 9.04999 2094.77 15.65C2101 21.8833 2104.12 29.7667 2104.12 39.3V66.25L2094.77 61.3C2094.77 56.5333 2097.33 50.85 2102.47 44.25C2107.6 37.2833 2114.57 30.5 2123.37 23.9C2132.17 16.9333 2142.25 11.25 2153.62 6.84997C2165.35 2.44998 2177.63 0.249991 2190.47 0.249991ZM2182.22 60.75C2166.08 60.75 2151.97 64.7833 2139.87 72.85C2127.77 80.9167 2118.23 91.9167 2111.27 105.85C2104.67 119.417 2101.37 135 2101.37 152.6C2101.37 169.833 2104.67 185.6 2111.27 199.9C2118.23 213.833 2127.77 224.833 2139.87 232.9C2151.97 240.967 2166.08 245 2182.22 245C2198.35 245 2212.28 240.967 2224.02 232.9C2236.12 224.833 2245.47 213.833 2252.07 199.9C2259.03 185.6 2262.52 169.833 2262.52 152.6C2262.52 135 2259.03 119.417 2252.07 105.85C2245.47 91.9167 2236.12 80.9167 2224.02 72.85C2212.28 64.7833 2198.35 60.75 2182.22 60.75ZM2535.83 0.249991C2561.49 0.249991 2584.41 6.84999 2604.58 20.05C2625.11 32.8833 2641.24 50.6666 2652.98 73.4C2665.08 96.1333 2671.13 122.533 2671.13 152.6C2671.13 182.667 2665.08 209.25 2652.98 232.35C2641.24 255.083 2625.29 273.05 2605.13 286.25C2585.33 299.083 2562.96 305.5 2538.03 305.5C2523.36 305.5 2509.61 303.117 2496.78 298.35C2483.94 293.583 2472.58 287.533 2462.68 280.2C2453.14 272.867 2445.63 265.533 2440.13 258.2C2434.99 250.5 2432.43 244.083 2432.43 238.95L2449.48 231.8V376.45C2449.48 385.983 2446.36 393.867 2440.13 400.1C2433.89 406.7 2426.01 410 2416.48 410C2406.94 410 2399.06 406.883 2392.83 400.65C2386.59 394.417 2383.48 386.35 2383.48 376.45V39.3C2383.48 29.7667 2386.59 21.8833 2392.83 15.65C2399.06 9.04999 2406.94 5.74999 2416.48 5.74999C2426.01 5.74999 2433.89 9.04999 2440.13 15.65C2446.36 21.8833 2449.48 29.7667 2449.48 39.3V66.25L2440.13 61.3C2440.13 56.5333 2442.69 50.85 2447.83 44.25C2452.96 37.2833 2459.93 30.5 2468.73 23.9C2477.53 16.9333 2487.61 11.25 2498.98 6.84997C2510.71 2.44998 2522.99 0.249991 2535.83 0.249991ZM2527.58 60.75C2511.44 60.75 2497.33 64.7833 2485.23 72.85C2473.13 80.9167 2463.59 91.9167 2456.63 105.85C2450.03 119.417 2446.73 135 2446.73 152.6C2446.73 169.833 2450.03 185.6 2456.63 199.9C2463.59 213.833 2473.13 224.833 2485.23 232.9C2497.33 240.967 2511.44 245 2527.58 245C2543.71 245 2557.64 240.967 2569.38 232.9C2581.48 224.833 2590.83 213.833 2597.43 199.9C2604.39 185.6 2607.88 169.833 2607.88 152.6C2607.88 135 2604.39 119.417 2597.43 105.85C2590.83 91.9167 2581.48 80.9167 2569.38 72.85C2557.64 64.7833 2543.71 60.75 2527.58 60.75Z" fill="url(#paint0_linear_8_6)"/>
<defs>
<linearGradient id="paint0_linear_8_6" x1="1350.5" y1="333" x2="1365.11" y2="-38.7203" gradientUnits="userSpaceOnUse">
<stop offset="0.059139" stop-color="white"/>
<stop offset="1" stop-color="#6B8886"/>
</linearGradient>
</defs>
</svg>
